<svg width="960" height="892" viewBox="0 0 960 892" fill="none" xmlns="http://www.w3.org/2000/svg">
<g clip-path="url(#clip0)">
<path d="M269.016 778.5C147.778 806.998 36.7518 750 4.33163 668.5C-28.0885 587 129.03 423 224.355 333C319.68 243 303.268 98.3527 513.265 91.1779C656.281 86.2915 810.55 182.668 879.99 312.075C949.43 441.481 992.258 600.737 929.501 715.456C866.743 830.175 723.728 809.293 570.995 768.879C455.31 738.268 370.955 754.539 269.016 778.5Z" fill="#F0F8FF"/>
<path d="M396.44 437.676C396.44 437.676 358.759 418.307 318.18 418.908C277.601 419.509 237.504 437.304 237.504 437.304C237.504 437.304 248.206 500.667 251.588 544.647C253.187 565.446 258.56 659.58 258.56 659.58H377.422L385.573 548.624L396.44 437.676Z" fill="#1EFFAE"/>
<path d="M305.426 657.977H377.423L381.498 687.862H305.426V657.977Z" fill="#01A8E8"/>
<path d="M258.492 657.977H347.935L340.472 687.183H258.492V657.977Z" fill="#01A8E8"/>
<path d="M344.691 673.207L341.423 687.183" stroke="#220D4E" stroke-width="2" stroke-linecap="round" stroke-linejoin="round"/>
<path d="M196.004 587.145L237.209 440.502C237.209 440.502 255.266 515.829 260.841 519.883L237.209 587.145L245.692 687.735L209.335 687.735C209.335 687.735 205.74 660.873 203.275 643.5C200.169 621.608 196.004 587.145 196.004 587.145Z" fill="#FBEADD"/>
<path d="M441.268 558.133L420.892 534.36L383.535 563.567C383.535 563.567 397.798 591.654 410.024 594.131C422.25 596.608 441.268 558.133 441.268 558.133Z" fill="#FBEADD"/>
<path d="M243.268 673.798L237.208 587.751" stroke="#220D4E" stroke-width="2" stroke-linecap="round" stroke-linejoin="round"/>
<path d="M257.811 525.943L238.421 580.48" stroke="#220D4E" stroke-width="2" stroke-linecap="round" stroke-linejoin="round"/>
<path d="M262.415 527.051L252.357 567.755L191.154 550.788L236.931 437.047L273.929 449.211L262.415 527.051Z" fill="#1EFFAE"/>
<path d="M195.533 537.137L238.492 548.291" stroke="#220D4E" stroke-width="2" stroke-linecap="round" stroke-linejoin="round"/>
<path d="M270.383 471.511L252.358 568.36L206.305 556.241" stroke="#220D4E" stroke-width="2" stroke-linecap="round" stroke-linejoin="round"/>
<path d="M435.345 553.817L385.25 564.847L345.227 441.414L396.032 437.228L435.345 553.817Z" fill="#1EFFAE"/>
<path d="M506.6 466.92C504.451 465.908 502.079 468.95 499.124 471.913C497.482 473.547 492.469 480.267 492.193 479.841C494.229 476.946 503.79 459.553 504.531 452.953C504.761 450.934 501.975 448.577 500.603 448.533C497.861 448.447 485.943 470.468 483.604 474.787C482.345 477.139 490.247 459.498 491.869 454.905C493.204 451.133 494.526 446.802 494.345 443.797C494.223 441.677 491.367 440.898 490.051 440.662C486.92 440.117 483.173 448.344 481.36 452.518C480.124 455.398 475.572 464.02 473.324 469.599C472.401 469.076 472.186 469.223 471.29 468.846C473.496 464.506 478.708 450.112 480.243 445.338C481.327 441.963 481.114 438.463 476.615 438.05C473.495 437.769 464.811 452.754 462.294 457.944C461.417 459.744 458.697 466.248 457.87 468.844C457.416 469.045 456.977 469.25 456.528 469.487C456.354 467.856 456.403 459.74 452.156 454.013C451.38 452.975 446.615 453.372 446.054 455.401C444.988 459.319 445.299 468.111 445.596 471.862C445.752 473.8 446.088 477.596 446.459 481.75C446.281 482.255 446.123 482.748 445.976 483.263C442.585 495.152 447.371 503.048 457.956 508.566C470.452 515.08 480.139 509.554 487.055 499.311C488.853 496.644 494.549 489.529 495.393 488.57C498.206 485.376 505.366 476.645 508.479 470.583C509.458 468.725 507.514 467.354 506.6 466.92Z" fill="#FBEADD" stroke="#220D4E" stroke-width="2" stroke-miterlimit="10" stroke-linecap="round" stroke-linejoin="round"/>
<path d="M456.64 469.881C456.64 469.881 465.462 470.484 471.121 482.173" stroke="#220D4E" stroke-width="2" stroke-miterlimit="10" stroke-linecap="round" stroke-linejoin="round"/>
<path d="M462.582 467.232C463.108 467.208 480.729 469.1 489.381 480.605" stroke="#220D4E" stroke-width="2" stroke-miterlimit="10" stroke-linecap="round" stroke-linejoin="round"/>
<path d="M452.256 487.424L393.045 564.925L422.021 587.98C422.021 587.98 471.071 519.525 478.257 505.242C484.201 493.437 452.256 487.424 452.256 487.424Z" fill="#FBEADD"/>
<path d="M432.21 572.703L476.892 508.882" stroke="#220D4E" stroke-width="2" stroke-linecap="round" stroke-linejoin="round"/>
<path d="M395.083 562.887L437.304 508.322" stroke="#220D4E" stroke-width="2" stroke-linecap="round" stroke-linejoin="round"/>
<path d="M389.182 470.49L379.234 634.141" stroke="#220D4E" stroke-width="2" stroke-linecap="round" stroke-linejoin="round"/>
<path d="M196.003 590.781C200.346 627.801 210.546 685.917 210.546 685.917" stroke="#220D4E" stroke-width="2" stroke-miterlimit="10" stroke-linecap="round" stroke-linejoin="round"/>
<path d="M346.043 405.305L343.28 428.958" stroke="#220D4E" stroke-width="2" stroke-linecap="round"/>
<path d="M362.624 376.41C360.909 375.847 361.917 368.095 364.874 359.094C367.83 350.094 371.617 343.255 373.331 343.818C375.046 344.381 374.038 352.134 371.082 361.134C368.125 370.134 364.338 376.974 362.624 376.41Z" stroke="#220D4E" stroke-width="2" stroke-miterlimit="10" stroke-linecap="round"/>
<path d="M345.586 399.172L341.986 433.434C341.986 433.434 333.855 439.671 318.241 437.614C302.627 435.556 298.736 430.013 298.774 427.146L305.546 378.222L345.586 399.172Z" fill="#FBEADD"/>
<path d="M297.335 345.933C302.309 343.875 299.704 344.175 305.555 340.761C305.983 334.984 299.381 342.933 299.669 338.827C300.493 326.725 316.652 323.195 332.419 323.589C346.857 323.948 365.68 331.481 366.945 336.518C368.209 341.555 368.642 349.856 368.836 359.564C369.246 379.691 367.349 385.579 361.704 402.761C358.39 412.849 346.384 414.063 333.314 408.049C320.244 402.036 315.067 399.475 311.425 393.55C307.783 387.625 305.156 381.888 305.034 378.984C301.693 378.01 293.117 371.63 292.966 365.992C292.816 360.354 292.36 347.99 297.335 345.933Z" fill="#FBEADD"/>
<path d="M364.465 381.973C364.465 381.973 372.083 379.602 375.348 378.794C371.388 371.867 369.507 362.719 365.607 355.758" fill="#FBEADD"/>
<path d="M364.465 381.973C364.465 381.973 372.083 379.602 375.348 378.794C371.388 371.867 369.507 362.719 365.607 355.758" stroke="#220D4E" stroke-width="2" stroke-miterlimit="10" stroke-linecap="round"/>
<path d="M366.065 394.309C366.065 394.309 361.043 398.439 357.021 396.24C352.146 393.575 352.355 388.95 352.355 388.95" stroke="#220D4E" stroke-width="2" stroke-miterlimit="10" stroke-linecap="round"/>
<path d="M362.736 343.646C362.736 343.646 359.395 341.581 353.393 343.068" stroke="#220D4E" stroke-width="2" stroke-miterlimit="10" stroke-linecap="round"/>
<path d="M387.843 315.076C387.843 315.076 389.492 336.861 358.039 335.614C326.587 334.367 316.483 353.773 316.483 353.773C316.483 353.773 306.999 342.059 299.943 351.778C292.888 361.497 306.464 381.173 306.464 381.173L303.787 389.321C303.787 389.321 279.613 369.172 278.215 344.639C276.817 320.107 286.002 307.851 302.314 302.69C318.626 297.53 337.634 301.048 346.299 306.196C354.964 311.343 367.986 305.34 367.986 305.34C367.986 305.34 367.824 312.568 373.63 315.533C379.437 318.497 387.843 315.076 387.843 315.076Z" fill="#220D4E"/>
<path d="M354.075 379.464C351.192 378.927 350.228 371.121 351.922 362.03C353.616 352.939 357.326 346.004 360.209 346.541C363.091 347.078 364.055 354.884 362.361 363.975C360.667 373.066 356.957 380.001 354.075 379.464Z" stroke="#220D4E" stroke-width="2" stroke-miterlimit="10" stroke-linecap="round"/>
<path d="M316.279 351.297L351.438 358.119" stroke="#220D4E" stroke-width="2" stroke-linecap="round"/>
<path d="M342.14 433.844C336.576 436.84 325.5 439.655 311.728 436.711" stroke="#220D4E" stroke-width="2" stroke-linecap="round"/>
<path d="M311.796 389.803C312.707 393.467 316.888 401.788 326.33 405.755" stroke="#220D4E" stroke-width="2" stroke-linecap="round"/>
<path d="M358.544 370.265C357.282 370.111 356.467 368.28 356.724 366.176C356.981 364.072 358.212 362.491 359.474 362.645C360.736 362.799 361.55 364.63 361.294 366.734C361.037 368.838 359.805 370.419 358.544 370.265Z" fill="#220D4E"/>
<path d="M133.805 687.863H870.001" stroke="#220D4E" stroke-width="2" stroke-linecap="round" stroke-linejoin="round"/>
<path d="M104 688.517H112.349" stroke="#220D4E" stroke-width="2" stroke-linecap="round" stroke-linejoin="round"/>
<path d="M528.052 470.928C530.047 470.733 531.07 473.819 532.577 477.007C533.419 478.769 535.495 485.52 535.836 485.26C535.039 482.387 532.375 465.876 533.659 460.429C534.049 458.761 536.932 457.679 538.034 458.033C540.238 458.741 543.462 479.591 544.095 483.681C544.428 485.904 543.153 469.667 543.168 465.562C543.177 462.191 543.355 458.379 544.351 456.045C545.05 454.398 547.54 454.588 548.653 454.773C551.296 455.227 551.94 462.817 552.196 466.643C552.362 469.278 553.533 477.41 553.737 482.474C554.619 482.32 554.748 482.498 555.567 482.452C555.045 478.383 554.986 465.484 555.121 461.26C555.217 458.276 556.379 455.558 560.072 456.503C562.631 457.163 565.281 471.515 565.809 476.346C565.995 478.023 566.311 483.955 566.232 486.249C566.536 486.537 566.827 486.824 567.116 487.139C567.718 485.895 569.981 479.439 574.981 476.096C575.892 475.492 579.566 477.156 579.437 478.925C579.172 482.336 576.43 489.226 575.131 492.119C574.456 493.613 573.113 496.531 571.639 499.722C571.638 500.173 571.623 500.61 571.594 501.059C570.916 511.456 564.872 516.367 554.895 517.75C543.116 519.383 536.986 512.254 534.395 502.168C533.723 499.542 531.215 492.282 530.816 491.283C529.487 487.951 526.274 478.995 525.52 473.303C525.269 471.551 527.202 471.014 528.052 470.928Z" fill="#8A5353" stroke="#220D4E" stroke-width="2" stroke-miterlimit="10" stroke-linecap="round" stroke-linejoin="round"/>
<path d="M566.914 487.421C566.914 487.421 559.733 485.402 551.919 493.078" stroke="#220D4E" stroke-width="2" stroke-miterlimit="10" stroke-linecap="round" stroke-linejoin="round"/>
<path d="M562.943 483.635C562.532 483.467 547.993 479.981 537.853 486.662" stroke="#220D4E" stroke-width="2" stroke-miterlimit="10" stroke-linecap="round" stroke-linejoin="round"/>
<path d="M565.424 502.59L594.98 570.784L641.033 557.453L642.305 595.041L576.854 606.329C576.854 606.329 540.83 518.446 539.704 509.37C538.33 498.319 565.424 502.59 565.424 502.59Z" fill="#8A5353"/>
<path d="M568.6 587.308L539.757 512.642" stroke="#220D4E" stroke-width="2" stroke-linecap="round" stroke-linejoin="round"/>
<path d="M595.617 571.074L568.748 513.363" stroke="#220D4E" stroke-width="2" stroke-linecap="round" stroke-linejoin="round"/>
<path d="M622.65 599.64L576.803 607.142" stroke="#220D4E" stroke-width="2" stroke-linecap="round" stroke-linejoin="round"/>
<path d="M553.617 515.984C553.617 515.984 558.464 518.312 564.973 513.746" stroke="#220D4E" stroke-width="2" stroke-miterlimit="10" stroke-linecap="round" stroke-linejoin="round"/>
<path d="M594.98 570.784L588.771 579.764" stroke="#220D4E" stroke-width="2" stroke-linecap="round" stroke-linejoin="round"/>
<path d="M626.107 562.906L596.192 569.572" stroke="#220D4E" stroke-width="2" stroke-linecap="round" stroke-linejoin="round"/>
<path d="M755.203 654.014L806.496 616.466L775.143 553.974L743.027 562.055L755.203 654.014Z" fill="#00C2FF"/>
<path d="M656.579 545.228L612.553 561.694L621.036 609.566L676.004 605.459L656.579 545.228Z" fill="#00C2FF"/>
<path d="M774.996 554.327C774.996 554.327 746.815 535.26 712.296 535.747C677.777 536.233 656.578 545.228 656.578 545.228C656.578 545.228 655.807 598.033 655.807 633.767C655.807 655.02 661.195 675.863 661.195 675.863C661.195 675.863 662.42 684.95 662.738 687.491H765.794C769.883 687.491 770.403 668.114 770.403 628.745C770.403 591.87 774.996 554.327 774.996 554.327Z" fill="#00C2FF"/>
<path d="M655.306 578.67L655.471 638.012" stroke="#220D4E" stroke-width="2" stroke-linecap="round" stroke-linejoin="round"/>
<path d="M816.728 700.029C822.504 697.808 802.055 619.545 802.055 619.545C802.055 619.545 776.169 638.556 771.571 641.9L779.525 670.769L735.156 665.228L726.805 688.491C726.805 688.491 741.12 693.262 763.19 698.034C785.259 702.806 810.951 702.251 816.728 700.029Z" fill="#8A5353"/>
<path d="M742.313 665.825L788.506 672.613" stroke="#220D4E" stroke-width="2" stroke-linecap="round" stroke-linejoin="round"/>
<path d="M777.653 665.174L779.016 670.263" stroke="#220D4E" stroke-width="2" stroke-linecap="round" stroke-linejoin="round"/>
<path d="M682.743 668.692C683.659 668.905 691.278 667.447 695.386 666.588L685.3 676.125C681.383 677.208 677.289 676.287 674.815 675.834C670.539 675.051 670.034 669.729 674.058 668.617C675.591 668.193 681.597 668.427 682.743 668.692Z" fill="#8A5353" stroke="#220D4E" stroke-width="2" stroke-linecap="round" stroke-linejoin="round"/>
<path d="M739.331 665.229C728.71 665.229 699.478 664.224 692.226 667.201C683.16 670.923 678.134 671.934 674.678 673.324C671.221 674.714 658.513 678.199 660.674 684.039C661.789 687.054 667.033 685.421 670.341 684.187C667.757 685.956 665.027 688.024 664.263 689.199C662.788 691.467 662.951 695.343 667.308 695.557C669.095 695.644 670.835 694.884 672.491 693.815C670.865 695.823 669.528 697.663 669.43 698.19C669.198 699.43 669.189 702.229 672.472 702.816C675.664 703.386 676.178 700.8 677.296 700.295C677.459 700.998 676.26 703.546 681.5 704.096C685.146 704.478 687.039 699.925 690.2 698.43C692.793 697.684 698.202 696.259 699.094 696.527C700.209 696.863 710.87 698.11 713.559 697.564C716.248 697.018 723.242 694.59 726.66 692.393C727.89 691.602 729.787 690.877 732.173 688.885C735.155 685.509 738.659 682.526 741.12 675.965C742.612 671.985 741.453 665.779 739.331 665.229Z" fill="#8A5353"/>
<path d="M742.313 665.825C728.594 664.036 699.478 664.224 692.225 667.201C683.16 670.923 678.134 671.934 674.677 673.324C671.221 674.714 658.513 678.199 660.673 684.039C661.763 686.984 666.792 685.494 670.107 684.273M688.448 675.912C685.643 676.844 676.424 680.613 675.472 680.98C674.52 681.348 665.737 686.932 664.262 689.199C662.787 691.467 662.951 695.343 667.308 695.556C669.031 695.641 670.71 694.937 672.313 693.928M691.549 681.942C687.769 682.394 679.699 685.679 678.44 686.385C676.866 687.267 669.661 696.951 669.429 698.19C669.198 699.43 669.189 702.229 672.472 702.816C675.664 703.386 676.178 700.8 677.296 700.295C677.459 700.998 676.259 703.546 681.5 704.096C685.145 704.478 687.039 699.925 690.2 698.43C692.793 697.684 698.202 696.259 699.094 696.527C700.209 696.863 710.87 698.11 713.559 697.564C716.248 697.018 725.611 696.527 732.173 688.491" stroke="#220D4E" stroke-width="2" stroke-linecap="round" stroke-linejoin="round"/>
<path d="M677.421 700.192L686.649 690.144L695.858 688.11" stroke="#220D4E" stroke-width="2" stroke-linecap="round" stroke-linejoin="round"/>
<path d="M770.847 588.908L770.847 643.13" stroke="#220D4E" stroke-width="2" stroke-linecap="round" stroke-linejoin="round"/>
<path d="M518.45 346.015C518.46 346.015 518.469 346.015 518.479 346.015L576.826 345.187L602.789 370.125C602.782 370.228 602.773 370.349 602.763 370.485C602.724 371.027 602.663 371.826 602.579 372.855C602.411 374.911 602.148 377.885 601.77 381.547C601.013 388.873 599.796 398.95 597.951 409.956C596.106 420.965 593.636 432.888 590.379 443.912C587.117 454.949 583.084 465.022 578.138 472.369L578.137 472.369C569.608 485.045 556.709 495.16 544.826 502.548C533.29 509.721 522.78 514.281 518.319 516.09C513.863 514.282 503.427 509.729 491.963 502.56C480.156 495.176 467.329 485.06 458.799 472.37L458.799 472.369C448.874 457.621 442.685 432.023 438.985 409.951C437.141 398.945 435.923 388.87 435.166 381.545C434.788 377.884 434.525 374.91 434.357 372.854C434.273 371.826 434.213 371.027 434.173 370.485C434.163 370.349 434.155 370.228 434.147 370.125L460.11 345.187L518.45 346.015Z" fill="#FFD330" stroke="#220D4E" stroke-width="2" stroke-linecap="round" stroke-linejoin="round"/>
<path d="M570.323 354.383L518.5 355.078L466.685 354.383L443.216 376.913C443.216 376.913 447.386 441.578 465.135 467.952C480.389 490.607 510.863 503.957 518.368 506.973C525.881 503.957 556.591 490.607 571.88 467.952C589.622 441.585 593.798 376.913 593.798 376.913L570.323 354.383Z" fill="#FFAC25"/>
<path d="M502.961 354.383L466.685 354.383L443.216 376.913" stroke="#220D4E" stroke-width="2" stroke-linecap="round" stroke-linejoin="round"/>
<path d="M570.323 354.383L532.497 354.383M518.369 506.973C525.881 503.957 556.591 490.607 571.88 467.952" stroke="#220D4E" stroke-width="2" stroke-linecap="round" stroke-linejoin="round"/>
<path d="M518.465 363.188L518.465 505.653" stroke="#220D4E" stroke-width="2" stroke-linecap="round" stroke-linejoin="round"/>
<path d="M593.654 377.083C592.264 391.213 588.441 417.042 586.357 427.467" stroke="#220D4E" stroke-width="2" stroke-linecap="round" stroke-linejoin="round"/>
<path d="M445.331 396.532C444.86 393.131 444.254 386.857 444.118 384.301" stroke="#220D4E" stroke-width="2" stroke-linecap="round" stroke-linejoin="round"/>
<path d="M527.631 428.511L572.108 384.034" stroke="#220D4E" stroke-width="2" stroke-linecap="round" stroke-linejoin="round"/>
<path d="M527.631 446.232L547.09 426.774" stroke="#220D4E" stroke-width="2" stroke-linecap="round" stroke-linejoin="round"/>
<path d="M488.715 463.604L508.174 444.146" stroke="#220D4E" stroke-width="2" stroke-linecap="round" stroke-linejoin="round"/>
<path d="M759.247 446.71C751.57 437.293 742.379 435.432 731.802 436.002C737.068 419.241 717.445 411.561 708.743 418.965C705.697 411.386 689.224 410.112 686.106 417.725C676.418 410.347 671.148 419.832 672.498 425.056C665.254 421.651 656.497 425.927 659.722 435.691C657.363 435.986 651.177 435.398 648.196 441.693C645.215 447.988 649.111 452.52 651.132 456.347C649.355 457.311 643.978 457.521 642.443 463.277C640.602 470.184 642.897 472.987 645.678 476.811C643.447 476.627 636.6 477.918 636.564 485.34C636.525 493.382 642.196 495.129 645.543 495.61C641.66 496.732 638.23 501.537 639.738 508.104C641.246 514.671 650.983 513.503 654.864 513.202C653.11 514.892 652.047 517.742 654.4 521.26C656.753 524.777 662.297 524.43 665.27 521.832C667.065 524.469 666.929 530.418 674.767 530.894C677.237 531.044 680.6 531.682 683.625 528.07C684.153 530.574 684.83 535.575 690.913 536.924C705.223 540.1 709.009 527.637 712.744 524.626C713.371 527.978 714.312 533.947 717.283 536.932C720.624 540.289 726.488 537.845 728.318 535.867C729.454 538.533 729.749 542.722 734.08 546.034C737.055 548.309 743.392 544.099 745.197 542.217C748.085 543.603 748.882 549.068 757.132 547.556C761.927 546.677 763.615 539.935 762.863 535.83C765.502 535.3 771.618 533.54 774.141 527.74C775.857 523.796 776.673 517.833 774.932 513.772C777.344 512.463 779.874 508.432 779.518 503.898C779.162 499.365 775.326 495.177 772.31 494.271C773.077 491.393 776.131 486.35 775.232 479.637C774.034 470.687 767.466 470.067 763.996 468.011C766.373 459.09 763.421 451.83 759.247 446.71Z" fill="#220D4E"/>
<path d="M691.856 523.879L694.658 547.329C694.658 547.329 700.056 556.522 713.242 554.82C726.428 553.118 729.076 542.395 729.076 542.395L723.523 480.368L691.856 523.879Z" fill="#8A5353"/>
<path d="M718.939 506.938C712.659 517.148 715.325 520.768 709.813 525.73C708.516 526.898 698.248 530.527 690.758 526.478C683.268 522.429 688.392 515.945 688.392 515.945C690.163 517.114 693.085 521.115 697.326 520.316C700.718 519.677 711.474 513.527 718.939 506.938Z" fill="#220D4E"/>
<path d="M740.993 484.378C740.993 484.378 743.151 459.543 726.406 454.816C701.005 465.541 687.495 452.328 687.495 452.328C687.495 452.328 679.01 458.43 675.377 472.045C672.475 482.915 669.431 499.226 683.126 516.228C696.821 533.23 730.413 524.023 739.416 503.134C755.785 500.914 756.979 477.447 740.993 484.378Z" fill="#8A5353" stroke="#220D4E" stroke-width="2" stroke-miterlimit="10" stroke-linecap="round" stroke-linejoin="round"/>
<path d="M685.572 480.772C686.707 481.06 688.039 479.679 688.547 477.688C689.055 475.697 688.548 473.85 687.413 473.562C686.278 473.274 684.946 474.655 684.438 476.646C683.93 478.637 684.437 480.484 685.572 480.772Z" fill="#220D4E"/>
<path d="M717.71 488.012C718.845 488.3 720.177 486.919 720.685 484.929C721.193 482.938 720.686 481.09 719.551 480.802C718.416 480.514 717.084 481.895 716.576 483.886C716.068 485.877 716.575 487.724 717.71 488.012Z" fill="#220D4E"/>
<path d="M700.16 498.505C700.16 498.505 693.272 498.626 691.966 493.241C690.661 487.856 695.763 486.718 697.343 483.371" fill="#8A5353"/>
<path d="M700.16 498.505C700.16 498.505 693.272 498.626 691.966 493.241C690.661 487.856 695.763 486.718 697.343 483.371C698.922 480.025 698.662 473.45 698.662 473.45" stroke="#220D4E" stroke-width="2" stroke-miterlimit="10" stroke-linecap="round" stroke-linejoin="round"/>
<path d="M692.377 504.137C692.377 504.137 694.916 509.656 701.056 509.909C707.196 510.162 709.395 505.606 709.395 505.606" stroke="#220D4E" stroke-width="2" stroke-miterlimit="10" stroke-linecap="round" stroke-linejoin="round"/>
<path d="M684.087 467.523C684.087 467.523 688.803 465.497 693.363 469.912" stroke="#220D4E" stroke-width="2" stroke-miterlimit="10" stroke-linecap="round" stroke-linejoin="round"/>
<path d="M715.157 474.425C715.157 474.425 719.873 472.399 724.433 476.813" stroke="#220D4E" stroke-width="2" stroke-miterlimit="10" stroke-linecap="round" stroke-linejoin="round"/>
<path d="M709.509 532.576L710.463 518.959L721.48 511.153L721.695 523.739L709.509 532.576Z" fill="#8A5353"/>
<path d="M514.241 623.165C513.515 620.899 515.205 618.583 517.584 618.583H643.629C645.155 618.583 646.507 619.569 646.972 621.023L672.959 702.154C673.685 704.42 671.995 706.736 669.616 706.736H543.572C542.045 706.736 540.694 705.75 540.228 704.296L514.241 623.165Z" fill="#00C2FF"/>
<rect x="535.716" y="701.071" width="186.008" height="5.66443" rx="2.83221" fill="#F4FCFF"/>
<path d="M685.139 701.071H538.548C536.984 701.071 535.716 702.339 535.716 703.903V703.903C535.716 705.467 536.984 706.735 538.548 706.735H718.892C720.456 706.735 721.724 705.467 721.724 703.903V703.903C721.724 702.339 720.456 701.071 718.892 701.071H701.55" stroke="#220D4E" stroke-width="2" stroke-linecap="round" stroke-linejoin="round"/>
<path d="M508.419 620.416C508.128 619.51 508.805 618.584 509.756 618.584H640.224C640.835 618.584 641.375 618.978 641.561 619.56L668.898 704.904C669.189 705.81 668.512 706.736 667.561 706.736H537.093C536.482 706.736 535.942 706.342 535.756 705.76L508.419 620.416Z" fill="#F4FCFF"/>
<path d="M662.955 686.35L668.018 702.155C668.743 704.42 667.053 706.736 664.674 706.736H538.63C537.104 706.736 535.752 705.75 535.287 704.297L509.299 623.165C508.574 620.9 510.264 618.584 512.643 618.584H547.421M654.747 660.725L642.03 621.023C641.565 619.57 640.213 618.584 638.687 618.584H565.016" stroke="#220D4E" stroke-width="2" stroke-linecap="round" stroke-linejoin="round"/>
<ellipse cx="588.872" cy="664.628" rx="9.30519" ry="9.16374" fill="#1EFFAE"/>
</g>
<defs>
<clipPath id="clip0">
<rect width="960" height="892" fill="white"/>
</clipPath>
</defs>
</svg>
